#N canvas 136 95 915 420 10;
#X obj 804 54 * 2;
#X obj 804 81 pow 0;
#X obj 757 54 * 2;
#X obj 706 52 * 2;
#X obj 654 52 * 2;
#X obj 606 55 * 2;
#X obj 555 54 * 2;
#X obj 507 54 * 2;
#X obj 456 56 * 2;
#X obj 757 81 pow 1;
#X obj 706 79 pow 2;
#X obj 654 79 pow 3;
#X obj 606 82 pow 4;
#X obj 555 81 pow 5;
#X obj 507 81 pow 6;
#X obj 456 83 pow 7;
#X obj 757 118 +;
#X obj 712 119 +;
#X obj 658 114 +;
#X obj 608 113 +;
#X obj 556 111 +;
#X obj 509 111 +;
#X obj 457 113 +;
#X obj 804 28 inlet;
#X obj 53 330 outlet;
#X obj 754 28 inlet;
#X obj 704 28 inlet;
#X obj 654 28 inlet;
#X obj 604 28 inlet;
#X obj 554 28 inlet;
#X obj 504 28 inlet;
#X obj 454 28 inlet;
#X obj 404 28 inlet;
#X obj 354 28 inlet;
#X obj 411 53 * 2;
#X obj 353 57 * 2;
#X obj 411 80 pow 8;
#X obj 353 84 pow 9;
#X obj 404 115 +;
#X obj 352 117 +;
#X obj 301 57 * 2;
#X obj 254 57 * 2;
#X obj 203 55 * 2;
#X obj 151 55 * 2;
#X obj 103 58 * 2;
#X obj 52 57 * 2;
#X obj 254 121 +;
#X obj 209 122 +;
#X obj 155 117 +;
#X obj 105 116 +;
#X obj 53 114 +;
#X obj 301 31 inlet;
#X obj 251 31 inlet;
#X obj 201 31 inlet;
#X obj 151 31 inlet;
#X obj 101 31 inlet;
#X obj 51 31 inlet;
#X obj 301 84 pow 10;
#X obj 254 84 pow 11;
#X obj 203 82 pow 12;
#X obj 151 82 pow 13;
#X obj 103 85 pow 14;
#X obj 54 86 pow 15;
#X obj 305 119 +;
#X connect 0 0 1 0;
#X connect 1 0 16 1;
#X connect 2 0 9 0;
#X connect 3 0 10 0;
#X connect 4 0 11 0;
#X connect 5 0 12 0;
#X connect 6 0 13 0;
#X connect 7 0 14 0;
#X connect 8 0 15 0;
#X connect 9 0 16 0;
#X connect 10 0 17 0;
#X connect 11 0 18 0;
#X connect 12 0 19 0;
#X connect 13 0 20 0;
#X connect 14 0 21 0;
#X connect 15 0 22 0;
#X connect 16 0 17 1;
#X connect 17 0 18 1;
#X connect 18 0 19 1;
#X connect 19 0 20 1;
#X connect 20 0 21 1;
#X connect 21 0 22 1;
#X connect 22 0 38 1;
#X connect 23 0 0 0;
#X connect 25 0 2 0;
#X connect 26 0 3 0;
#X connect 27 0 4 0;
#X connect 28 0 5 0;
#X connect 29 0 6 0;
#X connect 30 0 7 0;
#X connect 31 0 8 0;
#X connect 32 0 34 0;
#X connect 33 0 35 0;
#X connect 34 0 36 0;
#X connect 35 0 37 0;
#X connect 36 0 38 0;
#X connect 37 0 39 0;
#X connect 38 0 39 1;
#X connect 39 0 63 1;
#X connect 40 0 57 0;
#X connect 41 0 58 0;
#X connect 42 0 59 0;
#X connect 43 0 60 0;
#X connect 44 0 61 0;
#X connect 45 0 62 0;
#X connect 46 0 47 1;
#X connect 47 0 48 1;
#X connect 48 0 49 1;
#X connect 49 0 50 1;
#X connect 50 0 24 0;
#X connect 51 0 40 0;
#X connect 52 0 41 0;
#X connect 53 0 42 0;
#X connect 54 0 43 0;
#X connect 55 0 44 0;
#X connect 56 0 45 0;
#X connect 57 0 63 0;
#X connect 58 0 46 0;
#X connect 59 0 47 0;
#X connect 60 0 48 0;
#X connect 61 0 49 0;
#X connect 62 0 50 0;
#X connect 63 0 46 1;
