#N canvas 475 22 571 271 10;
#X obj 500 61 * 2;
#X obj 500 88 pow 0;
#X obj 453 61 * 2;
#X obj 402 59 * 2;
#X obj 350 59 * 2;
#X obj 302 62 * 2;
#X obj 251 61 * 2;
#X obj 203 61 * 2;
#X obj 152 63 * 2;
#X obj 453 88 pow 1;
#X obj 402 86 pow 2;
#X obj 350 86 pow 3;
#X obj 302 89 pow 4;
#X obj 251 88 pow 5;
#X obj 203 88 pow 6;
#X obj 152 90 pow 7;
#X obj 453 125 +;
#X obj 408 126 +;
#X obj 354 121 +;
#X obj 304 120 +;
#X obj 252 118 +;
#X obj 205 118 +;
#X obj 153 120 +;
#X obj 500 35 inlet;
#X obj 52 170 outlet;
#X obj 450 35 inlet;
#X obj 400 35 inlet;
#X obj 350 35 inlet;
#X obj 300 35 inlet;
#X obj 250 35 inlet;
#X obj 200 35 inlet;
#X obj 150 35 inlet;
#X obj 100 35 inlet;
#X obj 50 35 inlet;
#X obj 107 60 * 2;
#X obj 49 64 * 2;
#X obj 107 87 pow 8;
#X obj 49 91 pow 9;
#X obj 100 122 +;
#X obj 48 124 +;
#X connect 0 0 1 0;
#X connect 1 0 16 1;
#X connect 2 0 9 0;
#X connect 3 0 10 0;
#X connect 4 0 11 0;
#X connect 5 0 12 0;
#X connect 6 0 13 0;
#X connect 7 0 14 0;
#X connect 8 0 15 0;
#X connect 9 0 16 0;
#X connect 10 0 17 0;
#X connect 11 0 18 0;
#X connect 12 0 19 0;
#X connect 13 0 20 0;
#X connect 14 0 21 0;
#X connect 15 0 22 0;
#X connect 16 0 17 1;
#X connect 17 0 18 1;
#X connect 18 0 19 1;
#X connect 19 0 20 1;
#X connect 20 0 21 1;
#X connect 21 0 22 1;
#X connect 22 0 38 1;
#X connect 23 0 0 0;
#X connect 25 0 2 0;
#X connect 26 0 3 0;
#X connect 27 0 4 0;
#X connect 28 0 5 0;
#X connect 29 0 6 0;
#X connect 30 0 7 0;
#X connect 31 0 8 0;
#X connect 32 0 34 0;
#X connect 33 0 35 0;
#X connect 34 0 36 0;
#X connect 35 0 37 0;
#X connect 36 0 38 0;
#X connect 37 0 39 0;
#X connect 38 0 39 1;
#X connect 39 0 24 0;
