#N canvas 561 23 562 533 10;
#X obj 77 110 unpack f f f f f;
#X obj 49 159 dec2bin, f 21;
#X obj 77 318 bin2dec, f 34;
#X obj 264 173 dec2bin, f 21;
#X obj 89 189 dec2bin, f 21;
#X obj 117 348 bin2dec, f 34;
#X obj 129 219 dec2bin, f 21;
#X obj 157 378 bin2dec, f 34;
#X obj 169 249 dec2bin, f 21;
#X obj 197 408 bin2dec, f 34;
#X obj 73 49 inlet;
#X obj 96 450 pack f f f f;
#X obj 96 472 outlet;
#X floatatom 124 59 5 0 0 0 - - -, f 5;
#X floatatom 167 59 5 0 0 0 - - -, f 5;
#X floatatom 221 55 5 0 0 0 - - -, f 5;
#X floatatom 269 56 5 0 0 0 - - -, f 5;
#X floatatom 318 58 5 0 0 0 - - -, f 5;
#X floatatom 47 368 5 0 0 0 - - -, f 5;
#X floatatom 105 382 5 0 0 0 - - -, f 5;
#X floatatom 156 413 5 0 0 0 - - -, f 5;
#X floatatom 209 434 5 0 0 0 - - -, f 5;
#X connect 0 0 1 0;
#X connect 0 0 13 0;
#X connect 0 1 4 0;
#X connect 0 1 14 0;
#X connect 0 2 6 0;
#X connect 0 2 15 0;
#X connect 0 3 8 0;
#X connect 0 3 16 0;
#X connect 0 4 3 0;
#X connect 0 4 17 0;
#X connect 1 0 2 0;
#X connect 1 1 2 1;
#X connect 1 2 2 2;
#X connect 1 3 2 3;
#X connect 1 4 2 4;
#X connect 1 5 2 5;
#X connect 1 6 2 6;
#X connect 1 7 2 7;
#X connect 2 0 11 0;
#X connect 2 0 18 0;
#X connect 3 0 2 8;
#X connect 3 1 2 9;
#X connect 3 2 5 8;
#X connect 3 3 5 9;
#X connect 3 4 7 8;
#X connect 3 5 7 9;
#X connect 3 6 9 8;
#X connect 3 7 9 9;
#X connect 4 0 5 0;
#X connect 4 1 5 1;
#X connect 4 2 5 2;
#X connect 4 3 5 3;
#X connect 4 4 5 4;
#X connect 4 5 5 5;
#X connect 4 6 5 6;
#X connect 4 7 5 7;
#X connect 5 0 11 1;
#X connect 5 0 19 0;
#X connect 6 0 7 0;
#X connect 6 1 7 1;
#X connect 6 2 7 2;
#X connect 6 3 7 3;
#X connect 6 4 7 4;
#X connect 6 5 7 5;
#X connect 6 6 7 6;
#X connect 6 7 7 7;
#X connect 7 0 11 2;
#X connect 7 0 20 0;
#X connect 8 0 9 0;
#X connect 8 1 9 1;
#X connect 8 2 9 2;
#X connect 8 3 9 3;
#X connect 8 4 9 4;
#X connect 8 5 9 5;
#X connect 8 6 9 6;
#X connect 8 7 9 7;
#X connect 9 0 11 3;
#X connect 9 0 21 0;
#X connect 10 0 0 0;
#X connect 11 0 12 0;
