#N canvas 475 22 551 420 10;
#X obj 467 73 % 2;
#X obj 426 93 i;
#X obj 357 101 i;
#X obj 400 78 % 2;
#X obj 325 82 % 2;
#X obj 288 102 i;
#X obj 255 80 % 2;
#X obj 218 102 i;
#X obj 186 81 % 2;
#X obj 149 101 i;
#X obj 115 88 % 2;
#X obj 78 107 i;
#X obj 75 199 % 2;
#X obj 38 218 i;
#X obj 38 242 % 2;
#X obj 427 54 t f f;
#X obj 287 58 t f f;
#X obj 218 59 t f f;
#X obj 149 61 t f f;
#X obj 78 68 t f f;
#X obj 39 179 t f f;
#X obj 357 56 t f f;
#X obj 426 73 >> 1;
#X obj 357 80 >> 1;
#X obj 288 82 >> 1;
#X obj 218 80 >> 1;
#X obj 426 73 >> 1;
#X obj 149 81 >> 1;
#X obj 78 88 >> 1;
#X obj 38 199 >> 1;
#X obj 425 23 inlet;
#X obj 72 334 outlet;
#X obj 122 334 outlet;
#X obj 172 334 outlet;
#X obj 222 334 outlet;
#X obj 272 334 outlet;
#X obj 322 334 outlet;
#X obj 372 334 outlet;
#X obj 422 334 outlet;
#X connect 0 0 38 0;
#X connect 1 0 21 0;
#X connect 2 0 16 0;
#X connect 3 0 37 0;
#X connect 4 0 36 0;
#X connect 5 0 17 0;
#X connect 6 0 35 0;
#X connect 7 0 18 0;
#X connect 8 0 34 0;
#X connect 9 0 19 0;
#X connect 10 0 33 0;
#X connect 11 0 20 0;
#X connect 12 0 32 0;
#X connect 13 0 14 0;
#X connect 14 0 31 0;
#X connect 15 0 22 0;
#X connect 15 1 0 0;
#X connect 16 0 24 0;
#X connect 16 1 4 0;
#X connect 17 0 25 0;
#X connect 17 1 6 0;
#X connect 18 0 27 0;
#X connect 18 1 8 0;
#X connect 19 0 28 0;
#X connect 19 1 10 0;
#X connect 20 0 29 0;
#X connect 20 1 12 0;
#X connect 21 0 23 0;
#X connect 21 1 3 0;
#X connect 22 0 1 0;
#X connect 23 0 2 0;
#X connect 24 0 5 0;
#X connect 25 0 7 0;
#X connect 27 0 9 0;
#X connect 28 0 11 0;
#X connect 29 0 13 0;
#X connect 30 0 15 0;
