#N canvas 0 22 482 287 10;
#X obj 154 127 f;
#X obj 196 177 outlet;
#X obj 129 208 select 1;
#X obj 129 56 inlet;
#X obj 129 77 t f f;
#X obj 216 116 f \$1;
#X obj 216 86 inlet;
#X text 292 139 \$1: initial maximum;
#X obj 129 187 > \$1;
#X connect 0 0 1 0;
#X connect 0 0 8 1;
#X connect 2 0 0 0;
#X connect 3 0 4 0;
#X connect 4 0 8 0;
#X connect 4 1 0 1;
#X connect 5 0 8 1;
#X connect 6 0 5 0;
#X connect 8 0 2 0;
