#N canvas 526 23 477 471 10;
#X declare -path ./comport -path ./moocow -path ./list-abs;
#N canvas 859 23 450 300 settings 0;
#X msg 140 89 close;
#X msg 77 68 help;
#X msg 56 47 info;
#X msg 182 131 devices;
#X msg 203 152 ports;
#X msg 161 110 open 2;
#X obj 102 250 outlet;
#X obj 140 53 select 0 1;
#X obj 140 23 inlet;
#X msg 294 180 verbose 1;
#X obj 294 147 r lb1;
#X connect 0 0 6 0;
#X connect 1 0 6 0;
#X connect 2 0 6 0;
#X connect 3 0 6 0;
#X connect 4 0 6 0;
#X connect 5 0 6 0;
#X connect 7 0 0 0;
#X connect 7 1 5 0;
#X connect 8 0 7 0;
#X connect 9 0 6 0;
#X connect 10 0 9 0;
#X restore 106 205 pd settings;
#N canvas 0 22 464 331 init 0;
#X obj 65 30 loadbang;
#X obj 65 52 t b b b b;
#X obj 65 184 s lb4;
#X obj 85 154 s lb3;
#X obj 105 124 s lb2;
#X obj 125 94 s lb1;
#X obj 68 239 declare -path ./comport -path ./moocow -path ./list-abs
;
#X connect 0 0 1 0;
#X connect 1 0 2 0;
#X connect 1 1 3 0;
#X connect 1 2 4 0;
#X connect 1 3 5 0;
#X restore 56 32 pd init;
#N canvas 617 69 864 641 parse-output 1;
#X obj 41 180 select 10 13 92;
#X text 208 363 escape : 92 \; delimiter : 10 \; cr : 13 \;;
#X obj 41 30 inlet;
#X obj 437 303 route 83 65 67 77 109 76;
#X text 673 420 Setup: S (83) \; Address: A (65) \; Config: C (67)
\; MMG: M (77) \; MPU: m (109) \; LED: L (76) \;;
#X obj 581 241 t l;
#X obj 481 241 list prepend;
#X obj 550 211 r clear-list;
#X obj 437 175 r output-list;
#X obj 437 277 list;
#X obj 18 493 t b b;
#X obj 18 565 s clear-list;
#X obj 50 537 s output-list;
#X obj 437 525 print SETUP;
#X obj 642 341 print OTHER;
#X obj 467 495 print ADDRESS;
#X obj 497 465 print CONFIG;
#X obj 599 524 print MMG;
#X obj 557 405 print MPU;
#X obj 587 375 print LED;
#X obj 452 110 print RAW-STREAM;
#X obj 187 336 value escape-flag;
#X msg 187 311 1;
#X obj 295 126 value escape-flag;
#X obj 228 244 t b f;
#X obj 228 305 value escape-flag;
#X msg 228 266 0;
#X obj 18 314 t b b;
#X obj 122 409 value escape-flag;
#X msg 204 494 10;
#X obj 122 434 select 0 1;
#X msg 122 466 1;
#X obj 18 404 spigot;
#X text 161 551 If not escaped \, treat as delimiter \; If escaped
\, do not treat as delimiter \, add byte to list \, and clear escape
flag \;;
#X obj 164 472 t b b;
#X msg 164 494 0;
#X obj 164 516 value escape-flag;
#X obj 295 76 r lb1;
#X msg 295 98 0;
#X obj 128 64 print RAW;
#X obj 50 257 value escape-flag;
#X obj 50 282 select 0 1;
#X obj 92 320 t b b;
#X msg 92 342 0;
#X obj 92 364 value escape-flag;
#X msg 132 342 13;
#X obj 405 74 list length;
#X floatatom 405 96 5 0 0 0 - - -, f 5;
#X msg 405 13 255 255 255 255 0 255 255 255 255 0 255 255 255 255 0
255 255 255 255;
#N canvas 323 184 804 573 print-parsed-MMG 0;
#X obj 77 20 inlet;
#X obj 79 89 list split 2;
#X obj 71 319 print MMG-ADDR;
#X obj 129 195 list split 2;
#X obj 129 287 print MMG-LQI-RSSI;
#X obj 182 230 list split 1;
#X obj 182 260 print MMG-ID;
#X obj 285 77 list length;
#X floatatom 285 99 5 0 0 0 - - -, f 5;
#X obj 344 306 list split 2;
#X obj 344 399 print MMG-BATT;
#X obj 459 371 list split 1;
#X obj 459 401 print MMG-PREV-IDX;
#X obj 556 446 list split 1;
#X obj 556 476 print MMG-IDX;
#X obj 667 515 print MMG-DATA;
#X obj 686 435 list length;
#X floatatom 686 457 5 0 0 0 - - -, f 5;
#X obj 297 271 list split 2;
#X obj 292 431 print MMG-TIME;
#X obj 26 80 t b b;
#X obj 26 102 timer;
#X floatatom 26 124 5 0 0 0 - - -, f 5;
#X connect 0 0 7 0;
#X connect 0 0 20 0;
#X connect 0 0 1 0;
#X connect 1 0 2 0;
#X connect 1 1 3 0;
#X connect 3 0 4 0;
#X connect 3 1 5 0;
#X connect 5 0 6 0;
#X connect 5 1 18 0;
#X connect 7 0 8 0;
#X connect 9 0 10 0;
#X connect 9 1 11 0;
#X connect 11 0 12 0;
#X connect 11 1 13 0;
#X connect 13 0 14 0;
#X connect 13 1 15 0;
#X connect 13 1 16 0;
#X connect 16 0 17 0;
#X connect 18 0 19 0;
#X connect 18 1 9 0;
#X connect 20 0 21 0;
#X connect 20 1 21 1;
#X connect 21 0 22 0;
#X restore 588 573 pd print-parsed-MMG;
#N canvas 323 184 804 573 plot-parsed-MMG 1;
#X obj 77 20 inlet;
#X obj 79 89 list split 2;
#X obj 129 195 list split 2;
#X obj 182 230 list split 1;
#X obj 285 77 list length;
#X floatatom 285 99 5 0 0 0 - - -, f 5;
#X obj 344 306 list split 2;
#X obj 459 371 list split 1;
#X obj 556 446 list split 1;
#X obj 686 435 list length;
#X floatatom 686 457 5 0 0 0 - - -, f 5;
#X obj 297 271 list split 2;
#X obj 26 80 t b b;
#X obj 26 102 timer;
#X floatatom 26 124 5 0 0 0 - - -, f 5;
#X obj 71 319 print MMG-ADDR;
#X obj 129 287 print MMG-LQI-RSSI;
#X obj 182 260 print MMG-ID;
#X obj 344 399 print MMG-BATT;
#X obj 459 401 print MMG-PREV-IDX;
#X obj 556 476 print MMG-IDX;
#X obj 292 431 print MMG-TIME;
#N canvas 207 101 954 594 MMG-DATA 1;
#X obj 43 33 inlet;
#N canvas 0 22 450 278 (subpatch) 0;
#X array mmg-signal 384 float 0;
#X coords 0 255 383 0 600 420 1 0 0;
#X restore 277 53 graph;
#X obj 125 242 tabletool mmg-signal;
#X obj 94 175 t l b;
#X obj 33 339 s mmg-signal;
#N canvas 0 22 1343 739 unpack-bytes 0;
#X obj 53 34 inlet;
#X obj 265 832 outlet;
#X text 289 13 Here \, we unpack the 80 bytes into 64 samples. Every
data load in an MMG packet contains 80 bytes. The bytes are grouped
into 16 packages of 5 bytes each. There are 4 10-bit samples in every
package of 5 bytes. With 16 packages of 5 bytes (4 samples) \, that
makes 64 samples.;
#X obj 89 152 list split 4;
#X obj 124 181 list split 1;
#X obj 104 293 list append;
#X obj 173 219 list split 4;
#X obj 208 248 list split 1;
#X obj 261 287 list split 4;
#X obj 296 316 list split 1;
#X obj 104 315 list append;
#X obj 271 347 list split 4;
#X obj 306 376 list split 1;
#X obj 114 375 list append;
#X obj 336 401 list split 4;
#X obj 371 430 list split 1;
#X obj 104 450 list append;
#X obj 420 468 list split 4;
#X obj 455 497 list split 1;
#X obj 508 536 list split 4;
#X obj 543 565 list split 1;
#X obj 104 472 list append;
#X obj 518 596 list split 4;
#X obj 553 625 list split 1;
#X obj 114 532 list append;
#X obj 114 397 list append;
#X obj 695 126 list split 4;
#X obj 730 155 list split 1;
#X obj 121 597 list append;
#X obj 779 193 list split 4;
#X obj 814 222 list split 1;
#X obj 867 261 list split 4;
#X obj 902 290 list split 1;
#X obj 121 619 list append;
#X obj 877 321 list split 4;
#X obj 912 350 list split 1;
#X obj 146 656 list append;
#X obj 942 375 list split 4;
#X obj 977 404 list split 1;
#X obj 136 731 list append;
#X obj 1026 442 list split 4;
#X obj 1061 471 list split 1;
#X obj 1114 510 list split 4;
#X obj 1149 539 list split 1;
#X obj 136 753 list append;
#X obj 1124 570 list split 4;
#X obj 1159 599 list split 1;
#X obj 146 813 list append;
#X obj 146 678 list append;
#X obj 146 835 list length;
#X floatatom 146 857 5 0 0 0 - - -, f 5;
#X obj 105 564 list append;
#X connect 0 0 3 0;
#X connect 3 0 5 0;
#X connect 3 1 4 0;
#X connect 4 1 6 0;
#X connect 5 0 10 0;
#X connect 6 0 5 1;
#X connect 6 1 7 0;
#X connect 7 1 8 0;
#X connect 8 0 10 1;
#X connect 8 1 9 0;
#X connect 9 1 11 0;
#X connect 10 0 13 0;
#X connect 11 0 13 1;
#X connect 11 1 12 0;
#X connect 12 1 14 0;
#X connect 13 0 25 0;
#X connect 14 0 25 1;
#X connect 14 1 15 0;
#X connect 15 1 17 0;
#X connect 16 0 21 0;
#X connect 17 0 16 1;
#X connect 17 1 18 0;
#X connect 18 1 19 0;
#X connect 19 0 21 1;
#X connect 19 1 20 0;
#X connect 20 1 22 0;
#X connect 21 0 24 0;
#X connect 22 0 24 1;
#X connect 22 1 23 0;
#X connect 23 1 26 0;
#X connect 24 0 51 0;
#X connect 25 0 16 0;
#X connect 26 0 51 1;
#X connect 26 1 27 0;
#X connect 27 1 29 0;
#X connect 28 0 33 0;
#X connect 29 0 28 1;
#X connect 29 1 30 0;
#X connect 30 1 31 0;
#X connect 31 0 33 1;
#X connect 31 1 32 0;
#X connect 32 1 34 0;
#X connect 33 0 36 0;
#X connect 34 0 36 1;
#X connect 34 1 35 0;
#X connect 35 1 37 0;
#X connect 36 0 48 0;
#X connect 37 0 48 1;
#X connect 37 1 38 0;
#X connect 38 1 40 0;
#X connect 39 0 44 0;
#X connect 40 0 39 1;
#X connect 40 1 41 0;
#X connect 41 1 42 0;
#X connect 42 0 44 1;
#X connect 42 1 43 0;
#X connect 43 1 45 0;
#X connect 44 0 47 0;
#X connect 45 0 47 1;
#X connect 45 1 46 0;
#X connect 47 0 49 0;
#X connect 47 0 1 0;
#X connect 48 0 39 0;
#X connect 49 0 50 0;
#X connect 51 0 28 0;
#X restore 63 96 pd unpack-bytes;
#X msg 125 210 shift0 64;
#X msg 29 414 \; mmg-signal resize 64 \;;
#X msg 39 466 \; mmg-signal resize 80 \;;
#X msg 195 568 \; mmg-signal resize \$1 \;;
#X floatatom 204 431 5 0 0 0 - - -, f 5;
#X obj 204 450 * 64;
#X floatatom 220 501 5 0 0 0 - - -, f 5;
#X obj 220 520 - 64;
#X floatatom 220 542 5 0 0 0 - - -, f 5;
#X obj 33 317 list prepend 320;
#X connect 0 0 5 0;
#X connect 3 0 15 0;
#X connect 3 1 6 0;
#X connect 5 0 3 0;
#X connect 6 0 2 0;
#X connect 10 0 11 0;
#X connect 11 0 9 0;
#X connect 11 0 12 0;
#X connect 12 0 13 0;
#X connect 13 0 14 0;
#X connect 15 0 4 0;
#X restore 667 515 pd MMG-DATA;
#X connect 0 0 4 0;
#X connect 0 0 12 0;
#X connect 0 0 1 0;
#X connect 1 1 2 0;
#X connect 2 1 3 0;
#X connect 3 1 11 0;
#X connect 4 0 5 0;
#X connect 6 1 7 0;
#X connect 7 1 8 0;
#X connect 8 1 9 0;
#X connect 8 1 22 0;
#X connect 9 0 10 0;
#X connect 11 1 6 0;
#X connect 12 0 13 0;
#X connect 12 1 13 1;
#X connect 13 0 14 0;
#X restore 535 433 pd plot-parsed-MMG;
#X connect 0 0 27 0;
#X connect 0 1 40 0;
#X connect 0 2 22 0;
#X connect 0 3 24 0;
#X connect 2 0 0 0;
#X connect 3 0 13 0;
#X connect 3 1 15 0;
#X connect 3 2 16 0;
#X connect 3 3 50 0;
#X connect 3 4 18 0;
#X connect 3 5 19 0;
#X connect 3 6 14 0;
#X connect 5 0 6 1;
#X connect 6 0 5 0;
#X connect 6 0 9 1;
#X connect 7 0 6 1;
#X connect 8 0 9 0;
#X connect 9 0 3 0;
#X connect 10 0 11 0;
#X connect 10 1 12 0;
#X connect 22 0 21 0;
#X connect 24 0 26 0;
#X connect 24 1 6 0;
#X connect 26 0 25 0;
#X connect 27 0 32 0;
#X connect 27 1 28 0;
#X connect 28 0 30 0;
#X connect 29 0 6 0;
#X connect 30 0 31 0;
#X connect 30 1 34 0;
#X connect 31 0 32 1;
#X connect 32 0 10 0;
#X connect 34 0 35 0;
#X connect 34 1 29 0;
#X connect 35 0 36 0;
#X connect 35 0 32 1;
#X connect 37 0 38 0;
#X connect 38 0 23 0;
#X connect 40 0 41 0;
#X connect 41 1 42 0;
#X connect 42 0 43 0;
#X connect 42 1 45 0;
#X connect 43 0 44 0;
#X connect 45 0 6 0;
#X connect 46 0 47 0;
#X connect 48 0 46 0;
#X restore 47 348 pd parse-output;
#N canvas 412 166 773 386 messages 0;
#X text 302 49 2.2.2 Adddress;
#X obj 231 176 s send-packet;
#X text 303 83 escape \, type \, 8 bytes address \, 2 bytes wireless
address \, delim;
#X msg 230 128 92 65 92 10 92 13 0 1 2 3 4 5 6 7 10;
#X connect 3 0 1 0;
#X restore 56 92 pd messages;
#X obj 47 150 r send-packet;
#X obj 106 185 tgl 15 0 empty empty Open/close 17 7 0 12 -262144 -1
-1 1 1;
#X obj 47 318 spigot;
#X obj 97 318 tgl 15 0 empty empty empty 17 7 0 10 -262144 -1 -1 1
1;
#N canvas 175 28 731 562 other-info 0;
#X floatatom 140 338 10 0 0 1 baud - -, f 10;
#X floatatom 278 402 3 0 0 3 parity - -, f 3;
#X floatatom 318 402 3 0 0 2 stop - -, f 3;
#X floatatom 358 402 3 0 0 3 data - -, f 3;
#X floatatom 569 391 3 0 0 0 port - -, f 3;
#X obj 454 487 tgl 15 0 empty empty rts/cts -10 20 1 11 -262144 -258699
-1 0 1;
#X obj 504 487 tgl 15 0 empty empty xon/xoff -14 20 1 11 -262144 -258699
-1 0 1;
#X text 136 401 serial packet format:;
#X text 364 486 handshaking:;
#X text 68 257 flow control inputs:;
#X obj 196 257 tgl 15 0 empty empty dsr 0 20 1 11 -262144 -258699 -1
0 1;
#X obj 223 257 tgl 15 0 empty empty cts 0 20 1 11 -262144 -258699 -1
0 1;
#X obj 599 391 tgl 15 0 empty empty open -6 20 1 11 -262144 -258699
-1 0 1;
#X obj 574 309 print port_list;
#X obj 518 150 print other;
#X obj 140 104 route baud dsr cts parity stop data rtscts xonxoff port
open ports hupcl;
#X obj 559 236 tgl 15 0 empty empty hupcl -6 20 1 11 -262144 -258699
-1 0 1;
#X obj 137 35 inlet;
#X connect 15 0 0 0;
#X connect 15 1 10 0;
#X connect 15 2 11 0;
#X connect 15 3 1 0;
#X connect 15 4 2 0;
#X connect 15 5 3 0;
#X connect 15 6 5 0;
#X connect 15 7 6 0;
#X connect 15 8 4 0;
#X connect 15 9 12 0;
#X connect 15 10 13 0;
#X connect 15 11 16 0;
#X connect 15 12 14 0;
#X connect 17 0 15 0;
#X restore 146 293 pd other-info;
#N canvas 680 350 485 296 conversion-refs 0;
#X obj 62 144 any2bytes;
#X msg 96 60 A;
#X obj 289 172 bytes2any;
#X msg 277 109 77;
#X msg 335 115 83;
#X msg 56 63 S;
#X msg 140 68 C;
#X msg 182 68 M;
#X msg 219 65 m;
#X msg 260 74 L;
#X obj 62 166 print;
#X obj 289 194 print;
#X connect 0 0 10 0;
#X connect 1 0 0 0;
#X connect 2 0 11 0;
#X connect 3 0 2 0;
#X connect 4 0 2 0;
#X connect 5 0 0 0;
#X connect 6 0 0 0;
#X connect 7 0 0 0;
#X connect 8 0 0 0;
#X connect 9 0 0 0;
#X restore 56 52 pd conversion-refs;
#X obj 47 249 komport 2 115200;
#X connect 0 0 10 0;
#X connect 4 0 10 0;
#X connect 5 0 0 0;
#X connect 6 0 2 0;
#X connect 7 0 6 1;
#X connect 10 0 6 0;
#X connect 10 1 8 0;
