#N canvas 137 357 866 568 10;
#X declare -path ./komport -path ./moocow -path ./list-abs -path ./lib
;
#N canvas 859 23 450 300 settings 0;
#X msg 140 89 close;
#X msg 77 68 help;
#X msg 56 47 info;
#X msg 182 131 devices;
#X msg 203 152 ports;
#X msg 161 110 open 2;
#X obj 102 250 outlet;
#X obj 138 28 select 0 1;
#X obj 137 0 inlet;
#X msg 294 180 verbose 1;
#X obj 294 147 r lb1;
#X obj 290 33 s bufread-reset;
#X obj 166 51 t b b b;
#X obj 239 100 s read-metro-on;
#X obj 252 121 s read-metro-off;
#X connect 0 0 6 0;
#X connect 1 0 6 0;
#X connect 2 0 6 0;
#X connect 3 0 6 0;
#X connect 4 0 6 0;
#X connect 5 0 6 0;
#X connect 7 0 0 0;
#X connect 7 0 14 0;
#X connect 7 1 12 0;
#X connect 8 0 7 0;
#X connect 9 0 6 0;
#X connect 10 0 9 0;
#X connect 12 0 5 0;
#X connect 12 1 13 0;
#X connect 12 2 11 0;
#X restore 106 205 pd settings;
#N canvas 0 22 464 331 init 0;
#X obj 65 30 loadbang;
#X obj 65 52 t b b b b;
#X obj 65 184 s lb4;
#X obj 85 154 s lb3;
#X obj 105 124 s lb2;
#X obj 125 94 s lb1;
#X obj 68 240 declare -path ./komport -path ./moocow -path ./list-abs
-path ./lib;
#X connect 0 0 1 0;
#X connect 1 0 2 0;
#X connect 1 1 3 0;
#X connect 1 2 4 0;
#X connect 1 3 5 0;
#X restore 56 32 pd init;
#N canvas 425 41 842 737 parse-output 0;
#X obj 41 180 select 10 13 92;
#X text 285 441 escape : 92 \; delimiter : 10 \; cr : 13 \;;
#X obj 41 30 inlet;
#X obj 437 343 route 83 65 67 77 109 76;
#X text 673 460 Setup: S (83) \; Address: A (65) \; Config: C (67)
\; MMG: M (77) \; MPU: m (109) \; LED: L (76) \;;
#X obj 581 241 t l;
#X obj 481 241 list prepend;
#X obj 550 211 r clear-list;
#X obj 437 175 r output-list;
#X obj 18 493 t b b;
#X obj 18 565 s clear-list;
#X obj 50 537 s output-list;
#X obj 437 565 print SETUP;
#X obj 642 381 print OTHER;
#X obj 467 535 print ADDRESS;
#X obj 497 505 print CONFIG;
#X obj 557 445 print MPU;
#X obj 587 415 print LED;
#X obj 452 110 print RAW-STREAM;
#X obj 235 396 value escape-flag;
#X msg 235 371 1;
#X obj 295 126 value escape-flag;
#X obj 258 159 t b f;
#X obj 258 220 value escape-flag;
#X msg 258 181 0;
#X obj 18 314 t b b;
#X obj 122 409 value escape-flag;
#X msg 204 494 10;
#X obj 122 434 select 0 1;
#X msg 122 466 1;
#X obj 18 404 spigot;
#X text 167 539 If not escaped \, treat as delimiter \; If escaped
\, do not treat as delimiter \, add byte to list \, and clear escape
flag \;, f 29;
#X obj 164 472 t b b;
#X msg 164 494 0;
#X obj 164 516 value escape-flag;
#X obj 295 76 r lb1;
#X msg 295 98 0;
#X obj 128 64 print RAW;
#X obj 50 257 value escape-flag;
#X obj 50 282 select 0 1;
#X obj 92 320 t b b;
#X msg 92 342 0;
#X obj 92 364 value escape-flag;
#X msg 132 342 13;
#N canvas 703 168 804 573 plot-parsed-MMG 0;
#X obj 77 20 inlet;
#X obj 79 89 list split 2;
#X obj 129 195 list split 2;
#X obj 182 230 list split 1;
#X obj 285 77 list length;
#X floatatom 285 99 5 0 0 0 - - -, f 5;
#X obj 344 306 list split 2;
#X obj 459 371 list split 1;
#X obj 556 446 list split 1;
#X obj 686 435 list length;
#X floatatom 686 457 5 0 0 0 - - -, f 5;
#N canvas 231 87 1108 607 MMG-DATA 0;
#X obj 34 7 inlet;
#N canvas 0 22 450 278 (subpatch) 0;
#X array mmg-signal 1024 float 0;
#X coords 0 1023 1023 0 600 420 1 0 0;
#X restore 360 58 graph;
#X msg 195 568 \; mmg-signal resize \$1 \;;
#X floatatom 204 431 5 0 0 0 - - -, f 5;
#X obj 204 450 * 64;
#X floatatom 220 501 5 0 0 0 - - -, f 5;
#X obj 220 520 - 64;
#X floatatom 220 542 5 0 0 0 - - -, f 5;
#X obj 18 449 s mmg-updated;
#X text 441 519 Buffer 4 32ms/64 sample blocks from the receiver. The
newest block is rightmost. Play back the leftmost block every 32 ms
using "mmg-upated" bang at any samplerate;
#X obj 29 84 t b l b b b;
#X obj 84 320 s mmg-signal;
#N canvas 151 82 1049 637 unpack-bytes 0;
#X obj 53 34 inlet;
#X obj 132 494 outlet;
#X text 289 13 Here \, we unpack the 80 bytes into 64 samples. Every
data load in an MMG packet contains 80 bytes. The bytes are grouped
into 16 packages of 5 bytes each. There are 4 10-bit samples in every
package of 5 bytes. With 16 packages of 5 bytes (4 samples) \, that
makes 64 samples.;
#X obj 89 152 list split 5;
#X obj 63 223 bytes2samples;
#X obj 63 245 list append;
#X obj 199 156 list split 5;
#X obj 173 249 list append;
#X obj 310 159 list split 5;
#X obj 284 252 list append;
#X obj 420 163 list split 5;
#X obj 394 256 list append;
#X obj 515 164 list split 5;
#X obj 489 257 list append;
#X obj 625 168 list split 5;
#X obj 599 261 list append;
#X obj 736 171 list split 5;
#X obj 710 264 list append;
#X obj 829 173 list split 5;
#X obj 803 266 list append;
#X obj 169 303 list split 5;
#X obj 143 396 list append;
#X obj 279 307 list split 5;
#X obj 253 400 list append;
#X obj 390 310 list split 5;
#X obj 364 403 list append;
#X obj 500 314 list split 5;
#X obj 474 407 list append;
#X obj 595 315 list split 5;
#X obj 569 408 list append;
#X obj 705 319 list split 5;
#X obj 679 412 list append;
#X obj 816 322 list split 5;
#X obj 790 415 list append;
#X text 138 119 Take 16 packages of 5 bytes \, and unpack each into
4 samples. Pack the result back into a single 64-element list;
#N canvas 0 22 450 300 reference-output 0;
#X text 115 46 0 0 4 0 0 0 0 0 0 0 0 0 \; \; 1 1 4 2 0 0 64 16 0 1
0 0 \; \; 2 2 4 4 0 0 128 24 0 1 2 0 \; \; 3 3 4 6 0 0 192 27 0 1 2
3 \; \; 4 5 9 0 1 1 0 0 0 0 0 0 \; \; 5 6 9 2 1 1 64 16 0 1 0 0 \;
\; 6 7 9 4 1 1 128 24 0 1 2 0 \; \; 7 8 9 6 1 1 192 27 0 1 2 3 \; \;
;
#X restore 798 18 pd reference-output;
#X obj 173 227 bytes2samples;
#X obj 284 230 bytes2samples;
#X obj 394 234 bytes2samples;
#X obj 489 235 bytes2samples;
#X obj 599 239 bytes2samples;
#X obj 710 242 bytes2samples;
#X obj 803 244 bytes2samples;
#X obj 143 374 bytes2samples;
#X obj 253 378 bytes2samples;
#X obj 364 381 bytes2samples;
#X obj 474 385 bytes2samples;
#X obj 569 386 bytes2samples;
#X obj 679 390 bytes2samples;
#X obj 790 393 bytes2samples;
#X obj 900 397 bytes2samples;
#N canvas 0 22 450 278 (subpatch) 0;
#X array showpacket 80 float 2;
#X coords 0 255 80 0 200 140 1 0 0;
#X restore 563 475 graph;
#X obj 121 31 list prepend 0;
#X obj 121 53 s showpacket;
#X connect 0 0 3 0;
#X connect 3 0 4 0;
#X connect 3 1 6 0;
#X connect 4 0 5 0;
#X connect 5 0 1 0;
#X connect 6 0 36 0;
#X connect 6 1 8 0;
#X connect 7 0 5 1;
#X connect 8 0 37 0;
#X connect 8 1 10 0;
#X connect 9 0 7 1;
#X connect 10 0 38 0;
#X connect 10 1 12 0;
#X connect 11 0 9 1;
#X connect 12 0 39 0;
#X connect 12 1 14 0;
#X connect 13 0 11 1;
#X connect 14 0 40 0;
#X connect 14 1 16 0;
#X connect 15 0 13 1;
#X connect 16 0 41 0;
#X connect 16 1 18 0;
#X connect 17 0 15 1;
#X connect 18 0 42 0;
#X connect 18 1 20 0;
#X connect 19 0 17 1;
#X connect 20 0 43 0;
#X connect 20 1 22 0;
#X connect 21 0 19 1;
#X connect 22 0 44 0;
#X connect 22 1 24 0;
#X connect 23 0 21 1;
#X connect 24 0 45 0;
#X connect 24 1 26 0;
#X connect 25 0 23 1;
#X connect 26 0 46 0;
#X connect 26 1 28 0;
#X connect 27 0 25 1;
#X connect 28 0 47 0;
#X connect 28 1 30 0;
#X connect 29 0 27 1;
#X connect 30 0 48 0;
#X connect 30 1 32 0;
#X connect 31 0 29 1;
#X connect 32 0 49 0;
#X connect 32 1 50 0;
#X connect 33 0 31 1;
#X connect 36 0 7 0;
#X connect 37 0 9 0;
#X connect 38 0 11 0;
#X connect 39 0 13 0;
#X connect 40 0 15 0;
#X connect 41 0 17 0;
#X connect 42 0 19 0;
#X connect 43 0 21 0;
#X connect 44 0 23 0;
#X connect 45 0 25 0;
#X connect 46 0 27 0;
#X connect 47 0 29 0;
#X connect 48 0 31 0;
#X connect 49 0 33 0;
#X connect 50 0 33 1;
#X connect 52 0 53 0;
#X restore 80 253 pd unpack-bytes;
#X obj 248 229 s circ-buf-idx;
#X obj 213 159 f;
#X obj 250 150 + 1;
#X obj 199 215 * 64;
#X obj 84 299 list prepend;
#X obj 250 171 % 16;
#X obj 242 76 r bufread-reset;
#X msg 242 98 0;
#X connect 0 0 10 0;
#X connect 3 0 4 0;
#X connect 4 0 2 0;
#X connect 4 0 5 0;
#X connect 5 0 6 0;
#X connect 6 0 7 0;
#X connect 10 0 8 0;
#X connect 10 1 12 0;
#X connect 10 4 14 0;
#X connect 12 0 17 0;
#X connect 14 0 15 0;
#X connect 14 0 16 0;
#X connect 14 0 13 0;
#X connect 15 0 18 0;
#X connect 16 0 17 1;
#X connect 17 0 11 0;
#X connect 18 0 14 1;
#X connect 19 0 20 0;
#X connect 20 0 14 1;
#X restore 667 515 pd MMG-DATA;
#X obj 71 319 print MMG-ADDR;
#X obj 129 287 print MMG-LQI-RSSI;
#X obj 182 260 print MMG-ID;
#X obj 344 399 print MMG-BATT;
#X obj 292 431 print MMG-TIME;
#X obj 298 268 list split 2;
#X text 322 230 Taking out these two items \, which were in old sketches
\, but not part of the latest protocol.;
#X obj 459 401 print MMG-PREV-IDX;
#X obj 556 476 print MMG-IDX;
#X connect 0 0 4 0;
#X connect 0 0 1 0;
#X connect 1 1 2 0;
#X connect 2 1 3 0;
#X connect 3 1 17 0;
#X connect 4 0 5 0;
#X connect 6 1 7 0;
#X connect 7 1 8 0;
#X connect 8 1 9 0;
#X connect 8 1 11 0;
#X connect 9 0 10 0;
#X connect 17 1 6 0;
#X restore 535 473 pd plot-parsed-MMG;
#N canvas 158 69 450 300 timing 0;
#X obj 26 80 t b b;
#X obj 26 102 timer;
#X floatatom 26 124 5 0 0 0 - - -, f 5;
#X obj 218 138 getmax 0;
#X floatatom 218 160 5 0 0 0 - - -, f 5;
#X floatatom 294 160 5 0 0 0 - - -, f 5;
#X obj 294 138 getmin 1000;
#X obj 396 123 bng 15 250 50 0 empty empty empty 17 7 0 10 -262144
-1 -1;
#X obj 25 16 r output-list;
#X connect 0 0 1 0;
#X connect 0 1 1 1;
#X connect 1 0 2 0;
#X connect 1 0 3 0;
#X connect 1 0 6 0;
#X connect 3 0 4 0;
#X connect 6 0 5 0;
#X connect 7 0 6 1;
#X connect 7 0 3 1;
#X connect 8 0 0 0;
#X restore 630 119 pd timing;
#X obj 242 259 value escape-flag;
#X obj 242 284 select 0 1;
#X obj 284 322 t b b;
#X msg 284 344 0;
#X obj 284 366 value escape-flag;
#X msg 324 344 92;
#X obj 437 277 list prepend;
#X obj 437 308 spigot;
#X obj 517 306 inlet;
#X connect 0 0 25 0;
#X connect 0 1 38 0;
#X connect 0 2 46 0;
#X connect 0 3 22 0;
#X connect 2 0 0 0;
#X connect 3 0 12 0;
#X connect 3 1 14 0;
#X connect 3 2 15 0;
#X connect 3 3 44 0;
#X connect 3 4 16 0;
#X connect 3 5 17 0;
#X connect 3 6 13 0;
#X connect 5 0 6 1;
#X connect 6 0 5 0;
#X connect 6 0 52 1;
#X connect 7 0 6 1;
#X connect 8 0 52 0;
#X connect 9 0 10 0;
#X connect 9 1 11 0;
#X connect 20 0 19 0;
#X connect 22 0 24 0;
#X connect 22 1 6 0;
#X connect 24 0 23 0;
#X connect 25 0 30 0;
#X connect 25 1 26 0;
#X connect 26 0 28 0;
#X connect 27 0 6 0;
#X connect 28 0 29 0;
#X connect 28 1 32 0;
#X connect 29 0 30 1;
#X connect 30 0 9 0;
#X connect 32 0 33 0;
#X connect 32 1 27 0;
#X connect 33 0 34 0;
#X connect 33 0 30 1;
#X connect 35 0 36 0;
#X connect 36 0 21 0;
#X connect 38 0 39 0;
#X connect 39 1 40 0;
#X connect 40 0 41 0;
#X connect 40 1 43 0;
#X connect 41 0 42 0;
#X connect 43 0 6 0;
#X connect 46 0 47 0;
#X connect 47 0 20 0;
#X connect 47 1 48 0;
#X connect 48 0 49 0;
#X connect 48 1 51 0;
#X connect 49 0 50 0;
#X connect 51 0 6 0;
#X connect 52 0 53 0;
#X connect 53 0 3 0;
#X connect 54 0 53 1;
#X restore 47 348 pd parse-output;
#N canvas 412 166 773 386 messages 0;
#X text 302 49 2.2.2 Adddress;
#X obj 231 176 s send-packet;
#X text 303 83 escape \, type \, 8 bytes address \, 2 bytes wireless
address \, delim;
#X msg 230 128 92 65 92 10 92 13 0 1 2 3 4 5 6 7 10;
#X connect 3 0 1 0;
#X restore 56 92 pd messages;
#X obj 47 150 r send-packet;
#X obj 106 185 tgl 15 0 empty empty Open/close 17 7 0 12 -262144 -1
-1 0 1;
#X obj 97 318 tgl 15 0 empty empty empty 17 7 0 10 -262144 -1 -1 0
1;
#N canvas 175 28 731 562 other-info 0;
#X floatatom 140 338 10 0 0 1 baud - -, f 10;
#X floatatom 278 402 3 0 0 3 parity - -, f 3;
#X floatatom 318 402 3 0 0 2 stop - -, f 3;
#X floatatom 358 402 3 0 0 3 data - -, f 3;
#X floatatom 569 391 3 0 0 0 port - -, f 3;
#X obj 454 487 tgl 15 0 empty empty rts/cts -10 20 1 11 -262144 -258699
-1 0 1;
#X obj 504 487 tgl 15 0 empty empty xon/xoff -14 20 1 11 -262144 -258699
-1 0 1;
#X text 136 401 serial packet format:;
#X text 364 486 handshaking:;
#X text 68 257 flow control inputs:;
#X obj 196 257 tgl 15 0 empty empty dsr 0 20 1 11 -262144 -258699 -1
0 1;
#X obj 223 257 tgl 15 0 empty empty cts 0 20 1 11 -262144 -258699 -1
0 1;
#X obj 599 391 tgl 15 0 empty empty open -6 20 1 11 -262144 -258699
-1 0 1;
#X obj 574 309 print port_list;
#X obj 518 150 print other;
#X obj 140 104 route baud dsr cts parity stop data rtscts xonxoff port
open ports hupcl;
#X obj 559 236 tgl 15 0 empty empty hupcl -6 20 1 11 -262144 -258699
-1 0 1;
#X obj 137 35 inlet;
#X connect 15 0 0 0;
#X connect 15 1 10 0;
#X connect 15 2 11 0;
#X connect 15 3 1 0;
#X connect 15 4 2 0;
#X connect 15 5 3 0;
#X connect 15 6 5 0;
#X connect 15 7 6 0;
#X connect 15 8 4 0;
#X connect 15 9 12 0;
#X connect 15 10 13 0;
#X connect 15 11 16 0;
#X connect 15 12 14 0;
#X connect 17 0 15 0;
#X restore 146 293 pd other-info;
#N canvas 680 350 485 296 conversion-refs 0;
#X obj 62 144 any2bytes;
#X msg 96 60 A;
#X obj 289 172 bytes2any;
#X msg 277 109 77;
#X msg 335 115 83;
#X msg 56 63 S;
#X msg 140 68 C;
#X msg 182 68 M;
#X msg 219 65 m;
#X msg 260 74 L;
#X obj 62 166 print;
#X obj 289 194 print;
#X connect 0 0 10 0;
#X connect 1 0 0 0;
#X connect 2 0 11 0;
#X connect 3 0 2 0;
#X connect 4 0 2 0;
#X connect 5 0 0 0;
#X connect 6 0 0 0;
#X connect 7 0 0 0;
#X connect 8 0 0 0;
#X connect 9 0 0 0;
#X restore 56 52 pd conversion-refs;
#X obj 242 198 env~;
#X floatatom 242 220 5 0 0 0 - - -, f 5;
#X obj 416 265 tabwrite~ plot;
#X obj 293 363 *~;
#X obj 293 386 dac~;
#X floatatom 323 313 5 0 100 0 - - -, f 5;
#X obj 323 332 dbtorms;
#X obj 292 191 -~ 1;
#X obj 292 168 *~ 2;
#X obj 293 88 vline~;
#X obj 47 249 komport 2 115200;
#X text 550 249 32ms = 1536 samples at R=48000Hz \; 32ms = 64 samples
at R=2000Hz;
#X obj 378 487 table plot 1536;
#X text 420 411 If we fill the buffer of 64 samples (32ms) with one
cosine cycle \, we should hear a 1/0.032 = 31.25Hz tone. With 14 cycles
in a block we get 437.5Hz;
#X obj 525 205 tgl 15 0 empty empty empty 17 7 0 10 -262144 -1 -1 0
1;
#X obj 525 225 metro 500;
#N canvas 710 384 824 552 upsample-filter 0;
#X obj 54 139 inlet~;
#X text 328 76 Upsample to 16x and low-pass filter at 1000Hz (device's
Nyquist);
#X obj 52 447 outlet~;
#X obj 50 315 *~ 0.125;
#X obj 50 338 rzero~ -1;
#X obj 50 361 rzero~ -1;
#X obj 50 384 rzero~ -1;
#X obj 49 212 rpole~ 0.87467;
#X obj 49 189 *~ 0.12532;
#X obj 49 235 *~ 0.01668;
#X floatatom 168 111 7 0 0 0 - - -, f 7;
#X obj 168 161 / 16;
#X obj 168 136 / 22050;
#X obj 49 258 cpole~ 0.9293 0.10812;
#X obj 49 284 cpole~ 0.9293 -0.10812;
#X obj 168 187 buttercoef3;
#X obj 168 60 loadbang;
#X msg 168 86 1000;
#X obj 337 159 block~ 64 1 16;
#X connect 0 0 8 0;
#X connect 3 0 4 0;
#X connect 4 0 5 0;
#X connect 5 0 6 0;
#X connect 6 0 2 0;
#X connect 7 0 9 0;
#X connect 8 0 7 0;
#X connect 9 0 13 0;
#X connect 10 0 12 0;
#X connect 11 0 15 0;
#X connect 12 0 11 0;
#X connect 13 0 14 0;
#X connect 13 1 14 1;
#X connect 14 0 3 0;
#X connect 15 0 3 1;
#X connect 15 1 9 1;
#X connect 15 2 7 1;
#X connect 15 3 13 2;
#X connect 15 3 14 2;
#X connect 15 4 13 3;
#X connect 15 5 14 3;
#X connect 16 0 17 0;
#X connect 17 0 10 0;
#X restore 292 233 pd upsample-filter;
#X obj 496 353 list prepend 0;
#X obj 496 331 magSpec~ 8192;
#X obj 496 375 s spectrum;
#X obj 378 507 table spectrum 4097;
#X floatatom 174 453 5 0 0 0 - - -, f 5;
#X obj 174 472 pack f f;
#X msg 174 494 \; spectrum bounds 0 \$1 \$2 0 \;;
#X floatatom 253 436 5 0 0 0 - - -, f 5;
#X obj 253 455 t b f;
#X obj 292 146 /~ 1023;
#X obj 292 108 tabread~ mmg-signal;
#X floatatom 670 449 5 0 0 0 - - -, f 5;
#X obj 670 468 / 0.032;
#X obj 670 490 ftom;
#X floatatom 670 512 5 0 0 0 - - -, f 5;
#X floatatom 739 495 5 0 0 0 - - -, f 5;
#X msg 293 54 \$1 \, \$2 32;
#N canvas 579 232 730 447 read-point 0;
#X obj 63 227 list prepend;
#X obj 184 223 t f f;
#X obj 181 254 pack f f;
#X obj 234 223 + 63;
#X obj 184 193 * 64;
#X obj 55 294 outlet;
#X obj 34 109 metro 32;
#X obj 27 80 tgl 15 0 empty empty empty 17 7 0 10 -262144 -1 -1 0 1
;
#X obj 147 389 print;
#X obj 205 94 f;
#X obj 241 85 + 1;
#X obj 241 107 % 16;
#X obj 450 5 r circ-buf-idx;
#X obj 459 69 moses 0;
#X floatatom 563 109 5 0 0 0 - - -, f 5;
#X obj 469 36 - 8;
#X obj 446 94 + 16;
#X text 506 25 Look 8 blocks back from the spot where signal was most
recently written in the buffer;
#X msg 304 75 8;
#X obj 304 41 r bufread-reset;
#X obj 28 22 r read-metro-on;
#X msg 28 44 1;
#X msg 74 65 0;
#X obj 74 44 r read-metro-off;
#X obj 293 184 f;
#X obj 293 206 -;
#X obj 34 131 t b b b;
#X text 278 384 Need to have the read point index automatically adjust
based on whether packets have come in too soon or too late.;
#X obj 293 228 abs;
#X obj 293 272 select 0 1;
#X obj 256 299 f;
#X obj 203 60 spigot;
#X obj 293 294 t b b b;
#X msg 342 318 0;
#X obj 380 299 t b b b;
#X msg 428 323 1;
#X obj 384 350 tgl 15 0 empty empty empty 17 7 0 10 -262144 -1 -1 0
1;
#X obj 430 205 pack f f;
#X obj 454 260 print;
#X obj 293 250 >= 8;
#X obj 139 314 list prepend;
#X obj 138 276 bng 15 250 50 0 empty empty empty 17 7 0 10 -262144
-1 -1;
#X connect 0 0 5 0;
#X connect 1 0 2 0;
#X connect 1 1 3 0;
#X connect 2 0 0 1;
#X connect 2 0 40 1;
#X connect 3 0 2 1;
#X connect 4 0 1 0;
#X connect 6 0 26 0;
#X connect 7 0 6 0;
#X connect 9 0 10 0;
#X connect 9 0 4 0;
#X connect 9 0 24 1;
#X connect 9 0 30 1;
#X connect 9 0 37 0;
#X connect 10 0 11 0;
#X connect 11 0 9 1;
#X connect 12 0 15 0;
#X connect 12 0 25 1;
#X connect 12 0 37 1;
#X connect 13 0 16 0;
#X connect 13 1 14 0;
#X connect 15 0 13 0;
#X connect 16 0 14 0;
#X connect 18 0 9 1;
#X connect 18 0 30 1;
#X connect 18 0 24 1;
#X connect 19 0 18 0;
#X connect 20 0 21 0;
#X connect 21 0 7 0;
#X connect 22 0 7 0;
#X connect 23 0 22 0;
#X connect 24 0 25 0;
#X connect 25 0 28 0;
#X connect 26 0 0 0;
#X connect 26 1 31 0;
#X connect 26 2 24 0;
#X connect 28 0 39 0;
#X connect 29 0 32 0;
#X connect 29 1 34 0;
#X connect 30 0 4 0;
#X connect 30 0 37 0;
#X connect 31 0 9 0;
#X connect 32 1 30 0;
#X connect 32 2 33 0;
#X connect 33 0 31 1;
#X connect 33 0 36 0;
#X connect 34 2 35 0;
#X connect 35 0 31 1;
#X connect 35 0 36 0;
#X connect 39 0 29 0;
#X connect 40 0 8 0;
#X connect 41 0 40 0;
#X restore 290 25 pd read-point;
#X connect 0 0 19 0;
#X connect 4 0 19 0;
#X connect 5 0 0 0;
#X connect 6 0 2 1;
#X connect 9 0 10 0;
#X connect 12 0 13 0;
#X connect 12 0 13 1;
#X connect 14 0 15 0;
#X connect 15 0 12 1;
#X connect 16 0 9 0;
#X connect 16 0 25 0;
#X connect 17 0 16 0;
#X connect 18 0 36 0;
#X connect 19 0 2 0;
#X connect 19 1 7 0;
#X connect 23 0 24 0;
#X connect 24 0 27 0;
#X connect 24 0 11 0;
#X connect 25 0 11 0;
#X connect 25 0 27 0;
#X connect 25 0 12 0;
#X connect 26 0 28 0;
#X connect 27 0 26 0;
#X connect 30 0 31 0;
#X connect 31 0 32 0;
#X connect 33 0 34 0;
#X connect 34 0 31 0;
#X connect 34 1 31 1;
#X connect 35 0 17 0;
#X connect 36 0 35 0;
#X connect 37 0 38 0;
#X connect 38 0 39 0;
#X connect 38 0 41 0;
#X connect 39 0 40 0;
#X connect 42 0 18 0;
#X connect 43 0 42 0;
