#N canvas 99 415 962 603 24;
#X floatatom 114 262 10 0 0 0 - - -;
#X obj 114 199 anlzRms~;
#X obj 113 49 noise~;
#X obj 382 182 env~ 512 256;
#X floatatom 382 241 10 0 0 0 - - -;
#X obj 286 409 t b b;
#X obj 286 442 timer;
#X floatatom 286 475 5 0 0 0 - - -;
#X msg 590 319 256;
#X obj 590 352 / 44.1;
#X floatatom 590 385 5 0 0 0 - - -;
#X obj 709 80 loadbang;
#X msg 709 113 \; pd dsp 1 \;;
#X obj 113 82 *~;
#X obj 312 74 vline~;
#X msg 451 91 0 5000;
#X msg 312 41 0 \, 0.05 5000;
#X connect 1 0 0 0;
#X connect 1 0 5 0;
#X connect 2 0 13 0;
#X connect 3 0 4 0;
#X connect 5 0 6 0;
#X connect 5 1 6 1;
#X connect 6 0 7 0;
#X connect 8 0 9 0;
#X connect 9 0 10 0;
#X connect 11 0 12 0;
#X connect 13 0 1 0;
#X connect 13 0 3 0;
#X connect 14 0 13 1;
#X connect 15 0 14 0;
#X connect 16 0 14 0;
