#N canvas 99 415 962 603 24;
#X floatatom 118 347 10 0 0 0 - - -;
#X obj 400 391 t b b;
#X obj 400 424 timer;
#X floatatom 400 457 5 0 0 0 - - -;
#X obj 709 80 loadbang;
#X msg 709 113 \; pd dsp 1 \;;
#X obj 113 82 *~;
#X obj 312 74 vline~;
#X msg 451 91 0 5000;
#X obj 118 284 anlzSnap~;
#X obj 78 30 sig~ 1;
#X msg 312 41 0 \, 1 5000;
#X connect 1 0 2 0;
#X connect 1 1 2 1;
#X connect 2 0 3 0;
#X connect 4 0 5 0;
#X connect 6 0 9 0;
#X connect 7 0 6 1;
#X connect 8 0 7 0;
#X connect 9 0 0 0;
#X connect 9 0 1 0;
#X connect 10 0 6 0;
#X connect 11 0 7 0;
