#N canvas 234 171 962 603 24;
#X floatatom 53 55 5 0 0 0 - - -;
#X floatatom 177 386 5 0 0 0 - - -;
#X floatatom 468 394 5 0 0 0 - - -;
#X floatatom 327 202 5 0 0 0 - - -;
#X floatatom 453 206 5 0 0 0 - - -;
#X obj 202 305 flowBetween -10 50;
#X msg 268 94 printXth 77;
#X connect 0 0 5 0;
#X connect 3 0 5 1;
#X connect 4 0 5 2;
#X connect 5 0 1 0;
#X connect 5 1 2 0;
#X connect 6 0 5 0;
