#N canvas 234 171 962 603 24;
#X floatatom 101 43 5 0 0 0 - - -;
#X floatatom 127 259 10 0 0 0 - - -;
#X floatatom 139 94 5 0 0 0 - - -;
#X floatatom 258 102 5 0 0 0 - - -;
#X floatatom 380 102 5 0 0 0 - - -;
#X obj 101 159 scaleLin 202 17 100;
#X connect 0 0 5 0;
#X connect 2 0 5 1;
#X connect 3 0 5 2;
#X connect 4 0 5 3;
#X connect 5 0 1 0;
