#N canvas 234 171 962 603 24;
#X floatatom 101 43 5 0 0 0 - - -;
#X floatatom 127 259 10 0 0 0 - - -;
#X obj 101 73 / 100;
#X obj 101 159 smoothControlParams;
#X obj 70 8 bng 15 250 50 0 empty empty empty 17 7 0 10 -262144 -1
-1;
#X obj 282 56 tgl 15 0 empty empty empty 17 7 0 10 -262144 -1 -1 0
1;
#X obj 282 76 metro 10;
#X connect 0 0 2 0;
#X connect 2 0 3 0;
#X connect 3 0 1 0;
#X connect 4 0 0 0;
#X connect 5 0 6 0;
#X connect 6 0 0 0;
