#N canvas 292 146 891 604 10;
#X obj 543 77 table signal 128;
#N canvas 0 22 494 416 calc-sine 1;
#X obj 80 24 loadbang;
#X msg 80 46 128;
#X obj 80 90 until;
#X obj 82 150 f;
#X obj 124 155 + 1;
#X obj 86 220 * 3.1416;
#X obj 86 242 * 2;
#X obj 86 286 cos;
#X obj 50 331 tabwrite signal;
#X msg 98 116 0;
#X obj 82 172 t f f;
#X obj 82 194 /;
#X obj 80 68 t f b f;
#X obj 86 264 * 880;
#X connect 0 0 1 0;
#X connect 1 0 12 0;
#X connect 2 0 3 0;
#X connect 3 0 4 0;
#X connect 3 0 10 0;
#X connect 4 0 3 1;
#X connect 5 0 6 0;
#X connect 6 0 13 0;
#X connect 7 0 8 0;
#X connect 9 0 3 1;
#X connect 10 0 11 0;
#X connect 10 1 8 1;
#X connect 11 0 5 0;
#X connect 12 0 2 0;
#X connect 12 1 9 0;
#X connect 12 2 11 1;
#X connect 13 0 7 0;
#X restore 596 153 pd calc-sine;
#X obj 208 94 tgl 15 0 empty empty empty 17 7 0 10 -262144 -1 -1 0
1;
#X obj 208 114 metro 32;
#X msg 208 136 0 \, 63 32;
#X obj 208 158 vline~;
#X obj 201 271 *~;
#X obj 201 293 dac~;
#X floatatom 246 231 5 0 0 0 - - -, f 5;
#X obj 246 250 dbtorms;
#X obj 208 180 tabread4~ signal;
#X connect 2 0 3 0;
#X connect 3 0 4 0;
#X connect 4 0 5 0;
#X connect 5 0 10 0;
#X connect 6 0 7 0;
#X connect 6 0 7 1;
#X connect 8 0 9 0;
#X connect 9 0 6 1;
#X connect 10 0 6 0;
