#N canvas 185 79 886 745 10;
#X declare -path ./comport -path ./moocow;
#X msg 249 208 devices;
#X msg 330 182 open 2;
#X msg 341 221 close;
#X obj 228 350 comport 2 115200;
#X obj 481 321 metro 250;
#X obj 509 391 list;
#X obj 482 276 tgl 15 0 empty empty empty 17 7 0 10 -262144 -1 -1 0
1;
#X obj 509 413 print;
#X floatatom 148 187 5 0 0 0 - - -, f 5;
#N canvas 859 23 450 300 settings 0;
#X msg 140 89 close;
#X msg 119 68 help;
#X msg 211 201 verbose \$1;
#X obj 186 201 tgl 15 0 empty empty empty 0 -6 0 8 -241291 -250685
-1 0 1;
#X msg 98 47 info;
#X msg 182 131 devices;
#X msg 203 152 ports;
#X msg 161 110 open 2;
#X obj 102 250 outlet;
#X connect 0 0 8 0;
#X connect 1 0 8 0;
#X connect 2 0 8 0;
#X connect 3 0 2 0;
#X connect 4 0 8 0;
#X connect 5 0 8 0;
#X connect 6 0 8 0;
#X connect 7 0 8 0;
#X restore 365 295 pd settings;
#N canvas 704 23 730 322 output-stuff 0;
#X floatatom 69 170 10 0 0 1 baud - -, f 10;
#X floatatom 249 194 3 0 0 3 parity - -, f 3;
#X floatatom 277 194 3 0 0 2 stop - -, f 3;
#X floatatom 304 193 3 0 0 3 data - -, f 3;
#X floatatom 386 155 3 0 0 0 port - -, f 3;
#X obj 331 159 tgl 15 0 empty empty rts/cts -10 20 1 11 -24198 -258699
-1 0 1;
#X obj 358 185 tgl 15 0 empty empty xon/xoff -14 20 1 11 -24198 -258699
-1 0 1;
#X text 107 193 serial packet format:;
#X text 257 156 handshaking:;
#X text 67 225 flow control inputs:;
#X obj 195 225 tgl 15 0 empty empty dsr 0 20 1 11 -24198 -258699 -1
0 1;
#X obj 222 225 tgl 15 0 empty empty cts 0 20 1 11 -24198 -258699 -1
0 1;
#X obj 413 154 tgl 15 0 empty empty open -6 20 1 11 -24198 -258699
-1 0 1;
#X obj 434 211 print port_list;
#X obj 546 162 print other;
#X obj 168 116 route baud dsr cts parity stop data rtscts xonxoff port
open ports hupcl;
#X obj 487 177 tgl 15 0 empty empty hupcl -6 20 1 11 -24198 -258699
-1 0 1;
#X obj 165 47 inlet;
#X connect 15 0 0 0;
#X connect 15 1 10 0;
#X connect 15 2 11 0;
#X connect 15 3 1 0;
#X connect 15 4 2 0;
#X connect 15 5 3 0;
#X connect 15 6 5 0;
#X connect 15 7 6 0;
#X connect 15 8 4 0;
#X connect 15 9 12 0;
#X connect 15 10 13 0;
#X connect 15 11 16 0;
#X connect 15 12 14 0;
#X connect 17 0 15 0;
#X restore 327 394 pd output-stuff;
#X obj 43 32 declare -path ./comport -path ./moocow;
#X text 355 89 escape : 92 \; delimiter : 10 \; cr : 13 \;;
#X obj 157 522 bytes2any;
#X obj 355 576 any2bytes;
#X obj 298 647 print;
#X msg 135 128 92 67 TWO BYTES 255 255 255 10 13;
#X text 479 156 2.2.2 Adddress;
#X obj 170 395 spigot;
#X obj 230 398 tgl 15 0 empty empty empty 17 7 0 10 -262144 -1 -1 0
1;
#X msg 390 522 l;
#X msg 450 463 92 108 128 255 255 0 0 10 13;
#X msg 333 528 a;
#X text 515 176 escape \, type \, 8 bytes address \, 2 bytes wireless
address \, delim \, cr?;
#X msg 424 544 A;
#X msg 227 476 10;
#X obj 157 544 print bytes2any;
#X floatatom 355 598 5 0 0 0 - - -, f 5;
#X obj 582 604 bytes2any;
#X obj 582 626 print bytes2any;
#X text 46 279 comment;
#X text 585 318 source address: 2 bytes: 0 92;
#X msg 443 221 92 65 0 0 0 0 0 0 0 0 0 0 10;
#X obj 77 484 print;
#X obj 19 350 f;
#X obj 58 350 + 1;
#X msg 40 324 1;
#X floatatom 19 372 5 0 0 0 - - -, f 5;
#X obj 130 353 t b;
#X msg 580 568 77;
#X obj 116 398 bng 15 250 50 0 empty empty empty 17 7 0 10 -262144
-1 -1;
#X msg 628 547 83;
#X obj 170 417 route 92;
#X text 232 418 << gets rid of escapes;
#X connect 0 0 3 0;
#X connect 1 0 3 0;
#X connect 2 0 3 0;
#X connect 3 0 18 0;
#X connect 3 1 10 0;
#X connect 4 0 5 0;
#X connect 5 0 7 0;
#X connect 6 0 4 0;
#X connect 8 0 3 0;
#X connect 9 0 3 0;
#X connect 13 0 26 0;
#X connect 14 0 27 0;
#X connect 18 0 38 0;
#X connect 18 0 42 0;
#X connect 19 0 18 1;
#X connect 20 0 14 0;
#X connect 21 0 3 0;
#X connect 22 0 14 0;
#X connect 24 0 14 0;
#X connect 25 0 13 1;
#X connect 28 0 29 0;
#X connect 32 0 3 0;
#X connect 34 0 35 0;
#X connect 34 0 37 0;
#X connect 35 0 34 1;
#X connect 36 0 34 1;
#X connect 38 0 34 0;
#X connect 38 0 40 0;
#X connect 39 0 28 0;
#X connect 41 0 28 0;
#X connect 42 1 33 0;
